<svg width="640" height="640" xmlns="http://www.w3.org/2000/svg" xmlns:xlink="http://www.w3.org/1999/xlink" preserveAspectRatio="xMidYMid meet">
 <defs>
  <path id="d12d9cDW6Q" d="m373.45,357.98c0.42,0.42 2.53,2.53 6.33,6.33c3.8,-3.8 5.91,-5.91 6.33,-6.33c3.52,-3.52 87.91,-92.13 87.91,-142.07c0,-52.04 -42.2,-94.24 -94.24,-94.24c-52.04,0 -94.24,42.2 -94.24,94.24c0,49.94 84.39,138.55 87.91,142.07zm6.33,-113.23c-16.88,0 -30.94,-14.07 -30.94,-30.95c0,-16.88 14.06,-30.94 30.94,-30.94c16.88,0 30.95,14.06 30.95,30.94c0,16.88 -14.07,30.95 -30.95,30.95z"/>
  <path id="biQSlMBrh" d="m459.25,287.65c-6.33,0 -11.95,5.62 -11.95,11.95c0,6.33 5.62,11.96 11.95,11.96c0.33,0 1.97,0 4.93,0l12.66,66.81l-33.76,24.62l-215.92,-91.43c39.67,0 61.71,0 66.11,0c6.33,0 11.96,-5.63 11.96,-11.96c0,-6.33 -5.63,-11.95 -11.96,-11.95c-9.79,0 -58.79,0 -146.98,0l-28.14,187.78c207.62,0 322.96,0 346.03,0c26.02,0 47.12,-21.1 47.12,-47.12c-1.78,-9.38 -10.69,-56.27 -26.73,-140.66l-25.32,0c0,0 0,0 0,0zm-84.39,164.57l-192.71,0l84.4,-97.76l154.02,64.7l-45.71,33.06zm-208.18,-140.66l77.36,32.35l-92.83,108.31l-5.63,0l21.1,-140.66l0,0zm248.97,140.66l66.81,-48.53c2.96,15.62 4.6,24.29 4.92,26.02c-0.7,12.66 -11.25,22.51 -23.2,22.51c-6.47,0 -22.65,0 -48.53,0z"/>
 </defs>
 <g>
  <title>background</title>
  <rect fill="none" id="canvas_background" height="402" width="582" y="-1" x="-1"/>
 </g>
 <g>
  <title>Layer 1</title>
  <use id="svg_4" fill="#000000" xlink:href="#d12d9cDW6Q"/>
  <use fill="#000000" id="svg_6" stroke-opacity="0" stroke="#000000" xlink:href="#d12d9cDW6Q"/>
  <use id="svg_8" fill="#000000" xlink:href="#biQSlMBrh"/>
  <use fill="#000000" id="svg_10" stroke-opacity="0" stroke="#000000" xlink:href="#biQSlMBrh"/>
 </g>
</svg>