<?xml version="1.0" ?><svg height="32" id="svg4050" version="1.1" viewBox="0 0 32 32.000001" width="32" xmlns="http://www.w3.org/2000/svg" xmlns:cc="http://creativecommons.org/ns#" xmlns:dc="http://purl.org/dc/elements/1.1/" xmlns:inkscape="http://www.inkscape.org/namespaces/inkscape" xmlns:rdf="http://www.w3.org/1999/02/22-rdf-syntax-ns#" xmlns:sodipodi="http://sodipodi.sourceforge.net/DTD/sodipodi-0.dtd" xmlns:svg="http://www.w3.org/2000/svg"><defs id="defs4052"/><g id="layer1" transform="translate(0,-1020.3622)"><path d="M 25 1.9980469 C 23.404348 1.998284 21.938367 2.7629437 21.007812 3.9980469 L 2.5 3.9980469 A 0.50005 0.50005 0 0 0 2 4.4980469 L 2 27.376953 L 2 29.498047 A 0.50005 0.50005 0 0 0 2.5 29.998047 L 4.6210938 29.998047 L 25.308594 29.998047 A 0.50005 0.50005 0 0 0 25.466797 29.998047 L 27.5 29.998047 A 0.50005 0.50005 0 0 0 28 29.498047 L 28 27.472656 A 0.50005 0.50005 0 0 0 28 27.296875 L 28 11.029297 L 28.533203 10.498047 C 29.962992 9.0757469 30.39283 6.9301125 29.619141 5.0703125 C 28.844758 3.2110125 27.019956 1.9974469 25 1.9980469 z M 25 2.9980469 C 26.620268 2.9976469 28.075852 3.9676781 28.695312 5.4550781 C 29.314218 6.9427781 28.973176 8.6500625 27.828125 9.7890625 L 25 12.605469 L 23.277344 10.890625 A 0.50005 0.50005 0 0 0 23.253906 10.865234 L 22.171875 9.7890625 C 21.860271 9.4771023 21.604867 9.1161152 21.412109 8.7207031 C 20.917446 7.7141134 20.857549 6.5289094 21.304688 5.4550781 C 21.923904 3.9682781 23.380367 2.9983469 25 2.9980469 z M 25 4.9863281 C 24.486234 4.9863281 23.970947 5.1794563 23.582031 5.5664062 C 22.804185 6.3402062 22.806121 7.6108656 23.583984 8.3847656 C 24.361829 9.1585656 25.638178 9.1599656 26.416016 8.3847656 C 27.193847 7.6108656 27.193847 6.3402063 26.416016 5.5664062 C 26.027097 5.1794563 25.513766 4.9863281 25 4.9863281 z M 3 4.9980469 L 20.417969 4.9980469 C 20.407057 5.023078 20.391384 5.0450413 20.380859 5.0703125 C 19.873141 6.2896422 19.891442 7.6276514 20.361328 8.8085938 L 3 26.169922 L 3 4.9980469 z M 24.998047 5.9785156 C 25.253137 5.9785156 25.509679 6.0771375 25.707031 6.2734375 C 26.100527 6.6662048 26.101332 7.287388 25.707031 7.6796875 C 25.312327 8.0723875 24.687687 8.0709875 24.292969 7.6796875 C 23.898265 7.2869875 23.89633 6.6661375 24.291016 6.2734375 C 24.488368 6.0771375 24.742957 5.9785156 24.998047 5.9785156 z M 8.1210938 6 C 7.9059505 5.9935047 7.6914104 6.0051781 7.4785156 6.0332031 C 6.6269366 6.1453031 5.8111027 6.5308219 5.171875 7.1699219 C 3.8933932 8.4484219 3.6330924 10.432247 4.5371094 11.998047 C 5.4411298 13.563847 7.2887716 14.329228 9.0351562 13.861328 C 10.78154 13.393328 11.999975 11.806047 12 9.9980469 A 0.50005 0.50005 0 0 0 11.5 9.4980469 L 8 9.4980469 A 0.50005 0.50005 0 1 0 8 10.498047 L 10.830078 10.498047 C 10.623395 11.620247 9.9114782 12.592584 8.7773438 12.896484 C 7.4634566 13.248584 6.0824736 12.676047 5.4023438 11.498047 C 4.722219 10.320047 4.9170816 8.8387531 5.8789062 7.8769531 C 6.8407482 6.9151531 8.3220154 6.7202906 9.5 7.4003906 A 0.50005 0.50005 0 1 0 10 6.5351562 C 9.4128283 6.1961563 8.7665234 6.0194859 8.1210938 6 z M 20.851562 9.7324219 C 21.031735 10.001623 21.229472 10.263563 21.464844 10.498047 L 22.189453 11.220703 L 16.767578 16.644531 L 14.646484 18.765625 L 4.4140625 28.996094 L 3 28.996094 L 3 27.582031 L 20.851562 9.7324219 z M 22.900391 11.925781 L 24.646484 13.666016 A 0.50005286 0.50005286 0 0 0 25.351562 13.666016 L 27 12.025391 L 27 26.169922 L 17.828125 16.998047 L 22.900391 11.925781 z M 17.121094 17.705078 L 27 27.583984 L 27 28.998047 L 25.585938 28.998047 L 15.707031 19.119141 L 17.121094 17.705078 z M 15 19.826172 L 24.171875 28.998047 L 5.828125 28.998047 L 15 19.826172 z " id="rect4213" style="color:#000000;font-style:normal;font-variant:normal;font-weight:normal;font-stretch:normal;font-size:medium;line-height:normal;font-family:sans-serif;text-indent:0;text-align:start;text-decoration:none;text-decoration-line:none;text-decoration-style:solid;text-decoration-color:#000000;letter-spacing:normal;word-spacing:normal;text-transform:none;direction:ltr;block-progression:tb;writing-mode:lr-tb;baseline-shift:baseline;text-anchor:start;white-space:normal;clip-rule:nonzero;display:inline;overflow:visible;visibility:visible;opacity:1;isolation:auto;mix-blend-mode:normal;color-interpolation:sRGB;color-interpolation-filters:linearRGB;solid-color:#000000;solid-opacity:1;fill:#000000;fill-opacity:1;fill-rule:nonzero;stroke:none;stroke-width:1;stroke-linecap:round;stroke-linejoin:round;stroke-miterlimit:4.0999999;stroke-dasharray:none;stroke-dashoffset:0;stroke-opacity:1;color-rendering:auto;image-rendering:auto;shape-rendering:auto;text-rendering:auto;enable-background:accumulate" transform="translate(0,1020.3622)"/></g></svg>