<svg width="100" height="100" xmlns="http://www.w3.org/2000/svg">
 <g>
  <title>background</title>
  <rect x="-1" y="-1" width="114.517605" height="114.517605" id="canvas_background" fill="none"/>
 </g>

 <g>
  <title>Layer 1</title>
  <path d="m45.83334,20.83336l-39.58331,22.91663l8.33333,0l0,4.16661l0,25.0001l0,4.1666c0,2.0834 1.85833,4.1667 4.16666,4.1667l12.49999,0l0,-20.8333c0,-2.3084 1.85829,-4.1667 4.16667,-4.1667l29.16664,0c2.30838,0 4.09458,1.8595 4.16667,4.1667l0,20.8333l12.49999,0c2.30833,0 4.16666,-1.8583 4.16666,-4.1667l0,-4.1666l0,-25.0001l0,-4.16661l8.33333,0l-39.58331,-22.91663c-1.78112,-1.03125 -3.53399,-2.08124 -4.16666,-2.08333c-0.63275,-0.002 -2.35825,1.03625 -4.16666,2.08333zm-10.41666,39.58334l0,4.1666l29.16664,0l0,-4.1666l-29.16664,0zm0,8.3333l0,4.1667l29.16664,0l0,-4.1667l-29.16664,0zm0,8.3333l0,4.1667l29.16664,0l0,-4.1667l-29.16664,0z" id="path4181" fill-rule="nonzero" fill="#000000"/>
 </g>
</svg>