<?xml version="1.0" encoding="iso-8859-1"?>
<!-- Generator: Adobe Illustrator 19.1.0, SVG Export Plug-In . SVG Version: 6.00 Build 0)  -->
<svg version="1.1" id="Capa_1" xmlns="http://www.w3.org/2000/svg" xmlns:xlink="http://www.w3.org/1999/xlink" x="0px" y="0px"
	 viewBox="0 0 63 63" style="enable-background:new 0 0 63 63;" xml:space="preserve">
<g>
	<g id="group-22svg">
		<path id="path-1_13_" d="M52.526,48.262H28.812c-4.963,0-9.812-2.994-9.812-8.542v-4.003c0-5.285,4.646-10.471,9.812-10.471
			h13.054c1.003,0,1.859,0.406,2.613,0.765c0.247,0.117,0.489,0.234,0.727,0.324l11.655,4.678C60.793,32.174,63,34.402,63,37.635
			v0.798C63,44.312,58.536,48.262,52.526,48.262z M28.812,28.248c-3.518,0-6.812,3.839-6.812,7.469v4.003
			c0,3.598,3.303,5.54,6.812,5.54h23.714c4.347,0,7.474-2.616,7.474-6.827v-0.798c0-1.31-0.669-2.781-4.051-3.761
			c-0.051-0.015-0.208-0.032-0.257-0.052L44.165,29.13c-0.275-0.103-0.622-0.253-0.946-0.407c-0.491-0.234-1.026-0.475-1.353-0.475
			H28.812z"/>
		<path id="path-2_13_" d="M42.5,26.747c-0.828,0-1.5-0.672-1.5-1.501v-4.003H29.738c-0.685,0-1.283-0.465-1.453-1.129
			c-0.17-0.664,0.132-1.36,0.733-1.689l12.144-6.653c0.728-0.397,1.639-0.132,2.036,0.596c0.399,0.728,0.132,1.64-0.595,2.038
			l-7,3.835h6.47c0.828,0,1.927,0.672,1.927,1.501v5.504C44,26.075,43.328,26.747,42.5,26.747z"/>
		<path id="path-3_13_" d="M29.073,20.761c-0.169,0-0.339-0.029-0.502-0.087l-11.285-4.012c-0.781-0.277-1.188-1.136-0.911-1.917
			c0.276-0.781,1.348-1.189,2.128-0.912L28,17.134v-6.899c0-0.829,0.672-1.501,1.5-1.501S31,9.406,31,10.235v9.024
			c0,0.489-0.45,0.946-0.848,1.227C29.895,20.667,29.379,20.761,29.073,20.761z"/>
		<path id="path-4_12_" d="M50.59,42.258H39.573c-0.828,0-1.5-0.672-1.5-1.501c0-0.83,0.672-1.501,1.5-1.501H50.59
			c0.537,0,0.999-0.05,1.102-0.08C51.732,39.044,52,38.715,52,37.902V37.58c0-0.88-0.362-0.923-0.533-0.972
			c-0.097-0.029-0.298-0.067-0.388-0.114l-4.368-2.242h-6.138c-0.828,0-1.5-0.672-1.5-1.501c0-0.829,0.672-1.501,1.5-1.501h6.508
			c0.243,0,0.482,0.059,0.698,0.172l4.683,2.352C54.004,34.288,55,35.568,55,37.58v0.322C55,40.106,54.266,42.258,50.59,42.258z"/>
		<path id="path-5_11_" d="M20.243,43.658c-0.061,0-0.124-0.004-0.187-0.012L1.101,41.258C0.35,41.165,0,40.526,0,39.769v-7.018
			c0-0.829,0.245-1.501,1.073-1.501h18.5c0.828,0,1.5,0.672,1.5,1.501c0,0.829-0.672,1.501-1.5,1.501H3v4.191l17.64,2.224
			c0.822,0.102,1.298,0.852,1.196,1.675C21.742,43.102,20.989,43.658,20.243,43.658z"/>
		<path id="path-6_9_" d="M51.573,54.266h-20c-0.828,0-1.5-0.672-1.5-1.501c0-0.829,0.672-1.501,1.5-1.501h20
			c0.828,0,1.5,0.672,1.5,1.501C53.073,53.594,52.401,54.266,51.573,54.266z"/>
		<path id="path-7_9_" d="M1.5,39.756c-0.828,0-1.5-0.672-1.5-1.501V23.244c0-0.829,0.672-1.501,1.5-1.501S3,22.415,3,23.244v15.011
			C3,39.084,2.328,39.756,1.5,39.756z"/>
	</g>
</g>
<g>
</g>
<g>
</g>
<g>
</g>
<g>
</g>
<g>
</g>
<g>
</g>
<g>
</g>
<g>
</g>
<g>
</g>
<g>
</g>
<g>
</g>
<g>
</g>
<g>
</g>
<g>
</g>
<g>
</g>
</svg>
