<svg width="64" height="64" xmlns="http://www.w3.org/2000/svg">
 <g>
  <title>background</title>
  <rect x="-1" y="-1" width="34.063564" height="34.063564" id="canvas_background" fill="none"/>
 </g>

 <g>
  <title>Layer 1</title>
  <path d="m47.718,34.024l0,-14.234c0,-5.872 -6.068,-6.054 -6.068,-6.054l-19.526,0c-5.259,0 -5.801,4.388 -5.84,5.768l0,14.761c0,3.54 2.041,5.554 2.637,6.069l10.969,9.148c0.006,0.006 2.116,1.754 4.221,-0.001c0.003,0 0.003,-0.002 0.003,-0.002l10.073,-8.402c3.326,-2.771 3.525,-6.375 3.531,-7.053z" id="svg_2" fill="#000000"/>
  <path d="m61.85,4.269l-0.921,-0.922c-0.632,-0.607 -3.807,-3.354 -7.081,-0.081l-5.639,5.64c0,0 -1.373,1.636 0.518,3.751c0.04,0.045 0.061,0.081 0.095,0.124c1.001,1.054 1.749,2.569 1.749,4.795l0,4.252c0,0 0.396,2.325 2.723,0l0.549,-0.549l8.272,-8.272c-0.001,-0.002 4.301,-4.259 -0.265,-8.738z" id="svg_3" fill="#000000"/>
  <path d="m10.934,22.053c0.034,0.031 2.498,2.256 2.498,-0.909l0,-3.906c0.028,-0.997 0.3,-3.309 1.911,-4.963l-0.01,-0.008c0,0 0.048,-0.044 0.117,-0.117l0.002,-0.003c0.402,-0.424 1.611,-1.969 -0.119,-3.698l0,-0.001l-5.18,-5.182c-3.275,-3.273 -6.45,-0.527 -7.08,0.081l-0.922,0.922c-4.567,4.479 -0.266,8.736 -0.266,8.736l8.274,8.272l0.775,0.776z" id="svg_4" fill="#000000"/>
  <path d="m20.842,45.43l-0.367,-0.306c-0.297,-0.241 -2.596,-1.932 -5.578,0.838l0,0l-7.186,7.187c-0.41,0.416 -2.009,2.142 -2.71,4.329l-1.122,3.512c-0.564,1.762 1.25,1.25 1.25,1.25l0.002,0l3.283,-1.052c2.411,-0.771 4.591,-2.816 4.591,-2.816l7.596,-7.595c2.885,-2.884 0.584,-5.052 0.241,-5.347z" id="svg_5" fill="#000000"/>
  <path d="m59,57.478c-0.703,-2.188 -2.302,-3.913 -2.712,-4.329l-6.901,-6.901c-2.719,-2.72 -4.743,-1.927 -5.607,-1.336l-0.532,0.443l-0.001,0.002l-0.047,0.04c-0.36,0.306 -2.673,2.491 0.539,5.719l7.256,7.257c0,0 2.183,2.045 4.592,2.816l3.283,1.052l0.002,0c0,0 1.812,0.512 1.249,-1.25l-1.121,-3.513z" id="svg_6" fill="#000000"/>
 </g>
</svg>